<svg id="visual" viewBox="0 0 900 600" width="900" height="600" xmlns="http://www.w3.org/2000/svg" xmlns:xlink="http://www.w3.org/1999/xlink" version="1.1"><path d="M0 102L25 120.2C50 138.3 100 174.7 150 174.2C200 173.7 250 136.3 300 132.2C350 128 400 157 450 177.2C500 197.3 550 208.7 600 212C650 215.3 700 210.7 750 208.2C800 205.7 850 205.3 875 205.2L900 205L900 601L875 601C850 601 800 601 750 601C700 601 650 601 600 601C550 601 500 601 450 601C400 601 350 601 300 601C250 601 200 601 150 601C100 601 50 601 25 601L0 601Z" fill="#4facf7"></path><path d="M0 183L25 192.8C50 202.7 100 222.3 150 225C200 227.7 250 213.3 300 213.5C350 213.7 400 228.3 450 214.8C500 201.3 550 159.7 600 141.7C650 123.7 700 129.3 750 136.2C800 143 850 151 875 155L900 159L900 601L875 601C850 601 800 601 750 601C700 601 650 601 600 601C550 601 500 601 450 601C400 601 350 601 300 601C250 601 200 601 150 601C100 601 50 601 25 601L0 601Z" fill="#67b3f8"></path><path d="M0 185L25 181C50 177 100 169 150 185.5C200 202 250 243 300 248.8C350 254.7 400 225.3 450 215.3C500 205.3 550 214.7 600 227C650 239.3 700 254.7 750 248.7C800 242.7 850 215.3 875 201.7L900 188L900 601L875 601C850 601 800 601 750 601C700 601 650 601 600 601C550 601 500 601 450 601C400 601 350 601 300 601C250 601 200 601 150 601C100 601 50 601 25 601L0 601Z" fill="#7bbaf9"></path><path d="M0 314L25 305.2C50 296.3 100 278.7 150 270.5C200 262.3 250 263.7 300 254C350 244.3 400 223.7 450 214.3C500 205 550 207 600 207.2C650 207.3 700 205.7 750 221.7C800 237.7 850 271.3 875 288.2L900 305L900 601L875 601C850 601 800 601 750 601C700 601 650 601 600 601C550 601 500 601 450 601C400 601 350 601 300 601C250 601 200 601 150 601C100 601 50 601 25 601L0 601Z" fill="#8dc1fa"></path><path d="M0 278L25 278C50 278 100 278 150 278.2C200 278.3 250 278.7 300 289.8C350 301 400 323 450 326.7C500 330.3 550 315.7 600 305.8C650 296 700 291 750 287.2C800 283.3 850 280.7 875 279.3L900 278L900 601L875 601C850 601 800 601 750 601C700 601 650 601 600 601C550 601 500 601 450 601C400 601 350 601 300 601C250 601 200 601 150 601C100 601 50 601 25 601L0 601Z" fill="#9dc9fb"></path><path d="M0 355L25 358.3C50 361.7 100 368.3 150 367.5C200 366.7 250 358.3 300 354.8C350 351.3 400 352.7 450 351.2C500 349.7 550 345.3 600 342.3C650 339.3 700 337.7 750 339.3C800 341 850 346 875 348.5L900 351L900 601L875 601C850 601 800 601 750 601C700 601 650 601 600 601C550 601 500 601 450 601C400 601 350 601 300 601C250 601 200 601 150 601C100 601 50 601 25 601L0 601Z" fill="#add0fc"></path><path d="M0 407L25 394.3C50 381.7 100 356.3 150 342.3C200 328.3 250 325.7 300 330.3C350 335 400 347 450 354.3C500 361.7 550 364.3 600 366.3C650 368.3 700 369.7 750 373.3C800 377 850 383 875 386L900 389L900 601L875 601C850 601 800 601 750 601C700 601 650 601 600 601C550 601 500 601 450 601C400 601 350 601 300 601C250 601 200 601 150 601C100 601 50 601 25 601L0 601Z" fill="#bbd8fc"></path><path d="M0 427L25 425C50 423 100 419 150 418.2C200 417.3 250 419.7 300 423.7C350 427.7 400 433.3 450 435C500 436.7 550 434.3 600 433.7C650 433 700 434 750 424.5C800 415 850 395 875 385L900 375L900 601L875 601C850 601 800 601 750 601C700 601 650 601 600 601C550 601 500 601 450 601C400 601 350 601 300 601C250 601 200 601 150 601C100 601 50 601 25 601L0 601Z" fill="#c9e0fd"></path><path d="M0 466L25 458.3C50 450.7 100 435.3 150 429.8C200 424.3 250 428.7 300 428C350 427.3 400 421.7 450 418.7C500 415.7 550 415.3 600 414.8C650 414.3 700 413.7 750 419.3C800 425 850 437 875 443L900 449L900 601L875 601C850 601 800 601 750 601C700 601 650 601 600 601C550 601 500 601 450 601C400 601 350 601 300 601C250 601 200 601 150 601C100 601 50 601 25 601L0 601Z" fill="#d7e7fe"></path><path d="M0 508L25 499C50 490 100 472 150 467.5C200 463 250 472 300 481.3C350 490.7 400 500.3 450 496C500 491.7 550 473.3 600 467.8C650 462.3 700 469.7 750 473C800 476.3 850 475.7 875 475.3L900 475L900 601L875 601C850 601 800 601 750 601C700 601 650 601 600 601C550 601 500 601 450 601C400 601 350 601 300 601C250 601 200 601 150 601C100 601 50 601 25 601L0 601Z" fill="#e5effe"></path><path d="M0 503L25 507.3C50 511.7 100 520.3 150 523.5C200 526.7 250 524.3 300 525.2C350 526 400 530 450 533.2C500 536.3 550 538.7 600 536.3C650 534 700 527 750 526.5C800 526 850 532 875 535L900 538L900 601L875 601C850 601 800 601 750 601C700 601 650 601 600 601C550 601 500 601 450 601C400 601 350 601 300 601C250 601 200 601 150 601C100 601 50 601 25 601L0 601Z" fill="#f2f7ff"></path><path d="M0 559L25 560.8C50 562.7 100 566.3 150 565.5C200 564.7 250 559.3 300 554.2C350 549 400 544 450 544.2C500 544.3 550 549.7 600 549.2C650 548.7 700 542.3 750 538.8C800 535.3 850 534.7 875 534.3L900 534L900 601L875 601C850 601 800 601 750 601C700 601 650 601 600 601C550 601 500 601 450 601C400 601 350 601 300 601C250 601 200 601 150 601C100 601 50 601 25 601L0 601Z" fill="#ffffff"></path></svg>