<svg id="visual" viewBox="0 0 900 600" width="900" height="600" xmlns="http://www.w3.org/2000/svg" xmlns:xlink="http://www.w3.org/1999/xlink" version="1.1"><path d="M0 49L25 51C50 53 100 57 150 60C200 63 250 65 300 66C350 67 400 67 450 63C500 59 550 51 600 49C650 47 700 51 750 54C800 57 850 59 875 60L900 61L900 0L875 0C850 0 800 0 750 0C700 0 650 0 600 0C550 0 500 0 450 0C400 0 350 0 300 0C250 0 200 0 150 0C100 0 50 0 25 0L0 0Z" fill="#5573f9"></path><path d="M0 79L25 79C50 79 100 79 150 82C200 85 250 91 300 93C350 95 400 93 450 88C500 83 550 75 600 72C650 69 700 71 750 74C800 77 850 81 875 83L900 85L900 59L875 58C850 57 800 55 750 52C700 49 650 45 600 47C550 49 500 57 450 61C400 65 350 65 300 64C250 63 200 61 150 58C100 55 50 51 25 49L0 47Z" fill="#5782f9"></path><path d="M0 115L25 115C50 115 100 115 150 122C200 129 250 143 300 145C350 147 400 137 450 128C500 119 550 111 600 108C650 105 700 107 750 110C800 113 850 117 875 119L900 121L900 83L875 81C850 79 800 75 750 72C700 69 650 67 600 70C550 73 500 81 450 86C400 91 350 93 300 91C250 89 200 83 150 80C100 77 50 77 25 77L0 77Z" fill="#5e8ff7"></path><path d="M0 151L25 151C50 151 100 151 150 156C200 161 250 171 300 171C350 171 400 161 450 154C500 147 550 143 600 141C650 139 700 139 750 142C800 145 850 151 875 154L900 157L900 119L875 117C850 115 800 111 750 108C700 105 650 103 600 106C550 109 500 117 450 126C400 135 350 145 300 143C250 141 200 127 150 120C100 113 50 113 25 113L0 113Z" fill="#6a9cf5"></path><path d="M0 283L25 280C50 277 100 271 150 269C200 267 250 269 300 265C350 261 400 251 450 256C500 261 550 281 600 281C650 281 700 261 750 253C800 245 850 249 875 251L900 253L900 155L875 152C850 149 800 143 750 140C700 137 650 137 600 139C550 141 500 145 450 152C400 159 350 169 300 169C250 169 200 159 150 154C100 149 50 149 25 149L0 149Z" fill="#78a8f1"></path><path d="M0 307L25 303C50 299 100 291 150 288C200 285 250 287 300 283C350 279 400 269 450 275C500 281 550 303 600 304C650 305 700 285 750 276C800 267 850 269 875 270L900 271L900 251L875 249C850 247 800 243 750 251C700 259 650 279 600 279C550 279 500 259 450 254C400 249 350 259 300 263C250 267 200 265 150 267C100 269 50 275 25 278L0 281Z" fill="#7facef"></path><path d="M0 343L25 339C50 335 100 327 150 322C200 317 250 315 300 311C350 307 400 301 450 308C500 315 550 335 600 334C650 333 700 311 750 302C800 293 850 297 875 299L900 301L900 269L875 268C850 267 800 265 750 274C700 283 650 303 600 302C550 301 500 279 450 273C400 267 350 277 300 281C250 285 200 283 150 286C100 289 50 297 25 301L0 305Z" fill="#7facef"></path><path d="M0 391L25 385C50 379 100 367 150 360C200 353 250 351 300 349C350 347 400 345 450 352C500 359 550 375 600 373C650 371 700 351 750 342C800 333 850 335 875 336L900 337L900 299L875 297C850 295 800 291 750 300C700 309 650 331 600 332C550 333 500 313 450 306C400 299 350 305 300 309C250 313 200 315 150 320C100 325 50 333 25 337L0 341Z" fill="#78a8f1"></path><path d="M0 463L25 454C50 445 100 427 150 420C200 413 250 417 300 416C350 415 400 409 450 413C500 417 550 431 600 433C650 435 700 425 750 421C800 417 850 419 875 420L900 421L900 335L875 334C850 333 800 331 750 340C700 349 650 369 600 371C550 373 500 357 450 350C400 343 350 345 300 347C250 349 200 351 150 358C100 365 50 377 25 383L0 389Z" fill="#6a9cf5"></path><path d="M0 481L25 474C50 467 100 453 150 448C200 443 250 447 300 446C350 445 400 439 450 441C500 443 550 453 600 454C650 455 700 447 750 444C800 441 850 443 875 444L900 445L900 419L875 418C850 417 800 415 750 419C700 423 650 433 600 431C550 429 500 415 450 411C400 407 350 413 300 414C250 415 200 411 150 418C100 425 50 443 25 452L0 461Z" fill="#5e8ff7"></path><path d="M0 583L25 580C50 577 100 571 150 570C200 569 250 573 300 574C350 575 400 573 450 573C500 573 550 575 600 575C650 575 700 573 750 572C800 571 850 571 875 571L900 571L900 443L875 442C850 441 800 439 750 442C700 445 650 453 600 452C550 451 500 441 450 439C400 437 350 443 300 444C250 445 200 441 150 446C100 451 50 465 25 472L0 479Z" fill="#5782f9"></path><path d="M0 601L25 601C50 601 100 601 150 601C200 601 250 601 300 601C350 601 400 601 450 601C500 601 550 601 600 601C650 601 700 601 750 601C800 601 850 601 875 601L900 601L900 569L875 569C850 569 800 569 750 570C700 571 650 573 600 573C550 573 500 571 450 571C400 571 350 573 300 572C250 571 200 567 150 568C100 569 50 575 25 578L0 581Z" fill="#5573f9"></path></svg>