<svg id="visual" viewBox="0 0 900 600" width="900" height="600" xmlns="http://www.w3.org/2000/svg" xmlns:xlink="http://www.w3.org/1999/xlink" version="1.1"><path d="M0 371L21.5 388.8C43 406.7 86 442.3 128.8 443.3C171.7 444.3 214.3 410.7 257.2 406C300 401.3 343 425.7 385.8 418C428.7 410.3 471.3 370.7 514.2 352C557 333.3 600 335.7 642.8 353.5C685.7 371.3 728.3 404.7 771.2 432.2C814 459.7 857 481.3 878.5 492.2L900 503L900 0L878.5 0C857 0 814 0 771.2 0C728.3 0 685.7 0 642.8 0C600 0 557 0 514.2 0C471.3 0 428.7 0 385.8 0C343 0 300 0 257.2 0C214.3 0 171.7 0 128.8 0C86 0 43 0 21.5 0L0 0Z" fill="#0066ff"></path><path d="M0 389L21.5 380.7C43 372.3 86 355.7 128.8 340C171.7 324.3 214.3 309.7 257.2 322.8C300 336 343 377 385.8 379.2C428.7 381.3 471.3 344.7 514.2 333.3C557 322 600 336 642.8 335.5C685.7 335 728.3 320 771.2 325.2C814 330.3 857 355.7 878.5 368.3L900 381L900 0L878.5 0C857 0 814 0 771.2 0C728.3 0 685.7 0 642.8 0C600 0 557 0 514.2 0C471.3 0 428.7 0 385.8 0C343 0 300 0 257.2 0C214.3 0 171.7 0 128.8 0C86 0 43 0 21.5 0L0 0Z" fill="#1c6afe"></path><path d="M0 376L21.5 363.7C43 351.3 86 326.7 128.8 323C171.7 319.3 214.3 336.7 257.2 331.2C300 325.7 343 297.3 385.8 295.8C428.7 294.3 471.3 319.7 514.2 329.8C557 340 600 335 642.8 342.5C685.7 350 728.3 370 771.2 360.3C814 350.7 857 311.3 878.5 291.7L900 272L900 0L878.5 0C857 0 814 0 771.2 0C728.3 0 685.7 0 642.8 0C600 0 557 0 514.2 0C471.3 0 428.7 0 385.8 0C343 0 300 0 257.2 0C214.3 0 171.7 0 128.8 0C86 0 43 0 21.5 0L0 0Z" fill="#2b6efd"></path><path d="M0 302L21.5 301.8C43 301.7 86 301.3 128.8 304.2C171.7 307 214.3 313 257.2 309.2C300 305.3 343 291.7 385.8 273.8C428.7 256 471.3 234 514.2 227.2C557 220.3 600 228.7 642.8 245.7C685.7 262.7 728.3 288.3 771.2 293.7C814 299 857 284 878.5 276.5L900 269L900 0L878.5 0C857 0 814 0 771.2 0C728.3 0 685.7 0 642.8 0C600 0 557 0 514.2 0C471.3 0 428.7 0 385.8 0C343 0 300 0 257.2 0C214.3 0 171.7 0 128.8 0C86 0 43 0 21.5 0L0 0Z" fill="#3672fc"></path><path d="M0 204L21.5 200C43 196 86 188 128.8 181.8C171.7 175.7 214.3 171.3 257.2 183.2C300 195 343 223 385.8 239.8C428.7 256.7 471.3 262.3 514.2 260.2C557 258 600 248 642.8 234.3C685.7 220.7 728.3 203.3 771.2 194.2C814 185 857 184 878.5 183.5L900 183L900 0L878.5 0C857 0 814 0 771.2 0C728.3 0 685.7 0 642.8 0C600 0 557 0 514.2 0C471.3 0 428.7 0 385.8 0C343 0 300 0 257.2 0C214.3 0 171.7 0 128.8 0C86 0 43 0 21.5 0L0 0Z" fill="#4076fc"></path><path d="M0 122L21.5 127.2C43 132.3 86 142.7 128.8 144.7C171.7 146.7 214.3 140.3 257.2 139.5C300 138.7 343 143.3 385.8 156.5C428.7 169.7 471.3 191.3 514.2 198.3C557 205.3 600 197.7 642.8 184.7C685.7 171.7 728.3 153.3 771.2 157.5C814 161.7 857 188.3 878.5 201.7L900 215L900 0L878.5 0C857 0 814 0 771.2 0C728.3 0 685.7 0 642.8 0C600 0 557 0 514.2 0C471.3 0 428.7 0 385.8 0C343 0 300 0 257.2 0C214.3 0 171.7 0 128.8 0C86 0 43 0 21.5 0L0 0Z" fill="#487afb"></path><path d="M0 119L21.5 124.3C43 129.7 86 140.3 128.8 135.2C171.7 130 214.3 109 257.2 97C300 85 343 82 385.8 84.8C428.7 87.7 471.3 96.3 514.2 105.8C557 115.3 600 125.7 642.8 124.5C685.7 123.3 728.3 110.7 771.2 112.2C814 113.7 857 129.3 878.5 137.2L900 145L900 0L878.5 0C857 0 814 0 771.2 0C728.3 0 685.7 0 642.8 0C600 0 557 0 514.2 0C471.3 0 428.7 0 385.8 0C343 0 300 0 257.2 0C214.3 0 171.7 0 128.8 0C86 0 43 0 21.5 0L0 0Z" fill="#507efa"></path><path d="M0 61L21.5 61.3C43 61.7 86 62.3 128.8 62.2C171.7 62 214.3 61 257.2 59.3C300 57.7 343 55.3 385.8 61.8C428.7 68.3 471.3 83.7 514.2 83.8C557 84 600 69 642.8 67.2C685.7 65.3 728.3 76.7 771.2 78.3C814 80 857 72 878.5 68L900 64L900 0L878.5 0C857 0 814 0 771.2 0C728.3 0 685.7 0 642.8 0C600 0 557 0 514.2 0C471.3 0 428.7 0 385.8 0C343 0 300 0 257.2 0C214.3 0 171.7 0 128.8 0C86 0 43 0 21.5 0L0 0Z" fill="#5782f9"></path></svg>